<?xml version="1.0" encoding="UTF-8"?>
<svg id="Layer_1" data-name="Layer 1" xmlns="http://www.w3.org/2000/svg" width="56.12" height="56.12" viewBox="0 0 56.12 56.12">
  <defs>
    <style>
      .cls-1 {
        fill: #fff;
      }

      .cls-2 {
        isolation: isolate;
      }
    </style>
  </defs>
  <g id="Layer_2" data-name="Layer 2">
    <g id="Layer_1-2" data-name="Layer 1-2">
      <path d="M54.25,0h1.87V56.12h-1.87V0Z"/>
      <path d="M50.39,0h1.87V56.12h-1.87V0Z"/>
      <path d="M46.52,0h1.87V56.12h-1.87V0Z"/>
      <path d="M42.66,0h1.87V11.62h-1.87V0Z"/>
      <path d="M42.66,44.52h1.87v11.6h-1.87v-11.6Z"/>
      <path d="M38.79,0h1.87V11.62h-1.87V0Z"/>
      <path d="M38.79,44.52h1.87v11.6h-1.87v-11.6Z"/>
      <path d="M34.93,0h1.87V11.62h-1.87V0Z"/>
      <path d="M34.93,44.52h1.87v11.6h-1.87v-11.6Z"/>
      <path d="M31.06,0h1.87V11.62h-1.87V0Z"/>
      <path d="M31.06,44.52h1.87v11.6h-1.87v-11.6Z"/>
      <path d="M27.07,0h1.87V11.62h-1.87V0Z"/>
      <path d="M27.07,44.52h1.87v11.6h-1.87v-11.6Z"/>
      <path d="M23.2,0h1.87V11.62h-1.87V0Z"/>
      <path d="M23.2,44.52h1.87v11.6h-1.87v-11.6Z"/>
      <path d="M19.33,0h1.87V11.62h-1.87V0Z"/>
      <path d="M19.33,44.52h1.87v11.6h-1.87v-11.6Z"/>
      <path d="M15.47,0h1.87V11.62h-1.87V0Z"/>
      <path d="M15.47,44.52h1.87v11.6h-1.87v-11.6Z"/>
      <path d="M11.6,0h1.87V11.62h-1.87V0Z"/>
      <path d="M11.6,44.52h1.87v11.6h-1.87v-11.6Z"/>
      <path d="M7.73,0h1.87V56.12h-1.87V0Z"/>
      <path d="M3.87,0h1.87V56.12h-1.87V0Z"/>
      <path d="M0,0H1.87V56.12H0V0Z"/>
      <g class="cls-2">
        <path d="M30.04,13.32c2.04,0,3.95,.3,5.71,.89,1.76,.59,3.29,1.5,4.6,2.7,1.3,1.21,2.32,2.73,3.06,4.57,.74,1.84,1.11,4,1.11,6.49s-.37,4.65-1.11,6.49c-.74,1.84-1.76,3.36-3.06,4.57-1.3,1.21-2.83,2.11-4.6,2.7-1.76,.59-3.67,.89-5.71,.89H11.55v-1c.85,0,1.28-.33,1.28-1V15.33c0-.67-.43-1-1.28-1v-1H30.04Zm-2.23,24.51c1.75,0,3.27-.15,4.57-.45,1.3-.3,2.38-.83,3.23-1.59,.85-.76,1.49-1.77,1.92-3.04,.43-1.26,.64-2.86,.64-4.79s-.21-3.53-.64-4.79c-.43-1.26-1.07-2.27-1.92-3.04-.85-.76-1.93-1.29-3.23-1.59-1.3-.3-2.82-.45-4.57-.45h-8.63v19.72h8.63Z"/>
      </g>
      <path class="cls-1" d="M15.03,15.56h1.87v25.43h-1.87V15.56Z"/>
      <path class="cls-1" d="M31.06,39.35v1.87H15.04v-1.87H31.06Z"/>
    </g>
  </g>
</svg>