<?xml version="1.0" encoding="UTF-8"?>
<svg id="Layer_1" data-name="Layer 1" xmlns="http://www.w3.org/2000/svg" width="56.1" height="56.1" viewBox="0 0 56.1 56.1">
  <defs>
    <style>
      .cls-1 {
        fill: #fff;
      }

      .cls-2 {
        isolation: isolate;
      }
    </style>
  </defs>
  <g id="Layer_2" data-name="Layer 2">
    <g id="Layer_1-2" data-name="Layer 1-2">
      <path d="M54.3,0h1.8V56.1h-1.9V0h.1Z"/>
      <path d="M50.4,0h1.9V56.1h-1.9V0Z"/>
      <path d="M46.5,0h1.9V56.1h-1.9V0Z"/>
      <path d="M42.7,0h1.9V11.6h-1.9V0Z"/>
      <path d="M42.7,44.5h1.9v11.6h-1.9v-11.6Z"/>
      <path d="M38.8,0h1.9V11.6h-1.9V0Z"/>
      <path d="M38.8,44.5h1.9v11.6h-1.9v-11.6Z"/>
      <path d="M34.9,0h1.9V11.6h-1.9V0Z"/>
      <path d="M34.9,44.5h1.9v11.6h-1.9v-11.6Z"/>
      <path d="M31.1,0h1.9V11.6h-1.9V0Z"/>
      <path d="M31.1,44.5h1.9v11.6h-1.9v-11.6Z"/>
      <path d="M27.1,0h1.9V11.6h-1.9V0Z"/>
      <path d="M27.1,44.5h1.9v11.6h-1.9v-11.6Z"/>
      <path d="M23.2,0h1.9V11.6h-1.9V0Z"/>
      <path d="M23.2,44.5h1.9v11.6h-1.9v-11.6Z"/>
      <path d="M19.3,0h1.9V11.6h-1.9V0Z"/>
      <path d="M19.3,44.5h1.9v11.6h-1.9v-11.6Z"/>
      <path d="M15.5,0h1.9V11.6h-1.9V0Z"/>
      <path d="M15.5,44.5h1.9v11.6h-1.9v-11.6Z"/>
      <path d="M11.6,0h1.9V11.6h-1.9V0Z"/>
      <path d="M11.6,44.5h1.9v11.6h-1.9v-11.6Z"/>
      <path d="M7.7,0h1.9V56.1h-1.9V0Z"/>
      <path d="M3.9,0h1.9V56.1h-1.9V0Z"/>
      <path d="M0,0H1.9V56.1H0S0,0,0,0Z"/>
      <g class="cls-2">
        <path d="M30,13.3c2,0,3.9,.3,5.7,.9,1.8,.6,3.3,1.5,4.6,2.7,1.3,1.2,2.3,2.7,3.1,4.6,.7,1.8,1.1,4,1.1,6.5s-.4,4.7-1.1,6.5c-.7,1.8-1.8,3.4-3.1,4.6-1.3,1.2-2.8,2.1-4.6,2.7-1.8,.6-3.7,.9-5.7,.9H11.5v-1c.9,0,1.3-.3,1.3-1V15.3c0-.7-.4-1-1.3-1v-1H30Zm-2.2,24.5c1.7,0,3.3-.1,4.6-.4,1.3-.3,2.4-.8,3.2-1.6,.9-.8,1.5-1.8,1.9-3,.4-1.3,.6-2.9,.6-4.8s-.2-3.5-.6-4.8c-.4-1.3-1.1-2.3-1.9-3-.9-.8-1.9-1.3-3.2-1.6-1.3-.3-2.8-.4-4.6-.4h-8.6v19.7h8.6v-.1Z"/>
      </g>
      <path class="cls-1" d="M15,15.6h1.9v25.4h-1.9V15.6Z"/>
      <path class="cls-1" d="M31.1,39.4v1.9H15.1v-1.9H31.1Z"/>
    </g>
  </g>
</svg>