<?xml version="1.0" encoding="UTF-8"?>
<svg id="Layer_2" data-name="Layer 2" xmlns="http://www.w3.org/2000/svg" width="199.62" height="65" viewBox="0 0 199.62 65">
  <g id="Layer_1-2" data-name="Layer 1">
    <path d="M199.62,56.65c-.54,.96-1.47,1.1-2.44,1.13-2.45,.08-4.91,.37-7.34,.17-4.04-.33-7.28-2.48-10.09-5.28-2.26-2.25-4.45-4.58-6.68-6.87-.29-.3-.61-.56-.98-.89-.58,.5-1.1,1.06-1.72,1.49-1.84,1.27-3.66,2.6-5.61,3.69-.91,.51-2.09,.68-3.15,.71-2.9,.07-4.34-1.82-3.67-4.64,.09-.37,.2-.73,.28-1.03-1.17,0-2.36,.18-3.45-.05-1.29-.27-1.59-1.52-1.77-2.59-.91,.52-1.78,1.15-2.74,1.52-1.22,.47-1.94,.09-2.57-1.04-.78-1.4-1.13-1.46-2.26-.28-.8,.83-1.52,1.73-2.33,2.56-.41,.41-.9,.79-1.41,1.06-.98,.51-1.44,.27-1.65-.62-1.11,.4-2.21,.94-3.37,1.16-1.62,.32-3.08-.35-4.42-1.23-1.5-1-3-2-4.51-2.99-.37-.24-.79-.39-1.25-.62-.38,.57-.74,1.1-1.09,1.64-3.38,5.18-7.09,10.07-12.19,13.71-3.28,2.34-6.67,4.54-10.69,5.39-1.28,.27-2.64,.29-3.96,.28-1.26-.01-1.79-.54-2.14-1.74-.7-2.39-.28-4.74,.23-7.1,.51-2.38,1.26-4.67,2.57-6.87-.2-.02-.3-.04-.4-.04-2.5,.13-4.55-.8-6.23-2.63-.3-.32-.64-.64-1.03-.82-1.14-.53-1.99-.54-2.84,.47-1.01,1.21-1.8,2.46-2.1,4.03-.21,1.06-.62,2.03-2.07,2.55,1.01-3.11,1.94-5.99,2.89-8.93-2.01,.18-3.98,.35-5.98,.52-.52,1.95-.9,3.93-1.57,5.81-1.32,3.73-2.69,7.44-4.26,11.07-.59,1.37-1.68,2.58-2.76,3.65-.85,.84-2.04,1.34-3.09,2h-1.42c-4.89-2.31-6.76-8.01-4.36-13.6,1.82-4.23,4.91-7.1,9.28-8.57,.16-.06,.33-.11,.44-.15-.12-1.5-.24-2.95-.37-4.51-1.84,1.91-2.75,4.43-4.97,5.78-.08-.04-.16-.08-.24-.13,.05-.23,.09-.47,.15-.7,.34-1.41,.68-2.81,1.01-4.22,.04-.17,.1-.37,.06-.52-.14-.45-.33-.89-.5-1.34-.36,.2-.78,.35-1.08,.62-2.34,2.1-4.17,4.57-5.43,7.47-.33,.76-.83,1.43-1.93,1.58,.63-1.47,1.27-2.92,1.88-4.4,.61-1.5,1.17-3.02,1.64-4.67-.26,.22-.55,.41-.79,.65-2.26,2.38-4.44,4.84-6.8,7.12-1.06,1.03-2.44,1.74-3.72,2.52-.27,.17-.84,.21-1.04,.04-.22-.19-.29-.72-.2-1.05,.28-1.04,.67-2.06,1.05-3.16-.27,.19-.5,.35-.72,.51-4.13,3.01-8.6,5.33-13.64,6.36-1.51,.31-3.11,.12-4.66,.19-.49,.02-1.01,.03-1.45,.22-2.49,1.11-4.96,2.31-7.69,2.6-1.41,.15-2.92,.12-4.28-.22-2.84-.7-3.89-3.59-2.37-6.1,1.88-3.12,5.85-4.09,8.97-2.21,.1,.06,.2,.11,.34,.19,.08-.09,.17-.17,.21-.27,4.14-9.12,8.28-18.24,12.41-27.36,1.81-3.99,3.37-8.07,4.02-12.44,.07-.46,.42-.87,.75-1.54-2.82,.78-5.58,1.4-8.24,2.31-8.73,3-16.55,7.57-23.15,14.07C6.65,26.31,2.79,33.78,1.68,42.59c-.66,5.23-.08,10.33,1.74,15.27,.32,.87,.82,1.72,1.42,2.43,1.26,1.52,2.79,1.84,4.4,.71,1.59-1.11,3.01-2.47,4.46-3.77,.99-.89,1.89-1.87,2.86-2.79,.25-.23,.58-.38,.87-.57,.07,.08,.14,.15,.21,.23-.16,.25-.27,.56-.48,.75-2.2,2.1-4.4,4.22-6.65,6.26-.65,.59-1.45,1.03-2.24,1.41-1.98,.97-3.66,.53-4.99-1.24-1.18-1.57-1.78-3.41-2.18-5.29-.43-2.02-.65-4.08-.96-6.12C.09,49.59,.04,49.3,0,49.02c0-.77,0-1.54,0-2.31,.16-1.43,.28-2.87,.49-4.3,1.09-7.56,4.28-14.16,9.23-19.92,6.96-8.09,15.76-13.49,25.6-17.32,4.96-1.93,10.12-3.1,15.47-3.17,3.91-.06,7.62,.71,11.06,2.69,2.84,1.64,4.08,4.17,4.42,7.27,.39,3.59-.65,6.92-2.13,10.11-3.11,6.73-7.85,12.2-13.36,17.06-4.51,3.97-9.49,7.25-14.81,10.02-.15,.08-.3,.17-.45,.26l.03,.26c1.14-.11,2.3-.12,3.41-.36,5.41-1.15,10.12-3.73,14.35-7.23,.29-.24,.48-.59,.7-.9,1.74-2.39,3.44-4.8,5.23-7.15,.49-.64,1.23-1.09,1.9-1.57,.28-.2,.68-.25,1.02-.37,.07,.06,.14,.13,.21,.19-.24,.51-.37,1.11-.72,1.52-2.11,2.52-4.22,5.02-6.41,7.47-1.25,1.39-1.78,3.1-2.43,4.77-.07,.17,.02,.4,.05,.75,.36-.16,.69-.22,.91-.41,1.52-1.26,3.09-2.47,4.49-3.84,1.69-1.65,3.21-3.48,4.84-5.19,.44-.46,.98-.87,1.54-1.16,.73-.37,1.06-.09,.93,.74-.06,.37-.22,.73-.37,1.08-.28,.65-.59,1.28-.88,1.91,.95-.89,1.89-1.78,2.83-2.66,.45-.42,.87-.93,1.4-1.22,.47-.25,1.18-.48,1.61-.29,.36,.15,.66,.92,.64,1.39-.05,1.23-.29,2.45-.48,3.8,.7-1.01,1.33-1.98,2.02-2.91,.41-.56,.85-1.13,1.37-1.59,.45-.4,.91-.29,.99,.4,.11,.91,.18,1.82,.27,2.73,.04,.44,.03,.91,.18,1.31,.16,.44,.47,1.14,.75,1.15,.51,.03,1.2-.22,1.55-.6,.93-1.02,1.71-2.19,2.58-3.26,.41-.5,.78-1.35,1.56-1.05,.84,.33,.47,1.23,.44,1.9-.03,.67-.18,1.34-.29,2.13,1.53-.12,3.01-.3,4.5-.34,1.32-.04,2.11-.53,2.83-1.73,1.82-3.01,4.76-4.4,8.14-4.95,.78-.13,1.69-.18,2.14,.67,.46,.86,.1,1.68-.45,2.39-1.11,1.42-2.62,2.32-4.25,2.95-1.59,.61-3.25,1.05-4.92,1.44-.77,.18-1.29,.42-1.41,1.25-.06,.37-.21,.73-.38,1.33,.38-.42,.59-.65,.8-.89,1.37-1.49,3.15-1.64,4.74-.37,.41,.33,.76,.74,1.14,1.11,1.47,1.44,3.27,1.95,5.28,1.85,.23-.01,.52-.16,.67-.34,3.08-3.56,7.13-5.24,11.62-6.12,3.16-.62,6.33-.82,9.53-.43,.28,.03,.65-.09,.88-.27,3.04-2.35,6.08-4.71,9.09-7.09,.36-.28,.59-.73,.85-1.12,4.34-6.45,8.58-12.97,13.05-19.34,2.57-3.67,5.75-6.84,9.46-9.41,.96-.67,2.04-1.16,3.06-1.74,.3,0,.59,0,.89,0,1.03,.67,1.21,1.24,.75,2.48-.92,2.51-2.5,4.62-4.12,6.69-3.99,5.1-8.76,9.45-13.46,13.86-3.02,2.83-6.09,5.61-9.12,8.42-.21,.2-.41,.43-.56,.67-1.6,2.66-3.19,5.33-4.78,7.99-.06,.1-.09,.21-.09,.21,2.24,1.46,4.41,2.94,6.65,4.3,1.81,1.1,3.73,1.34,5.57,0,.35-.25,.59-.7,.77-1.11,.54-1.27,.94-2.61,1.55-3.85,.47-.95,1.23-1.7,2.52-2.13-.14,.72-.14,1.3-.37,1.77-.66,1.35-1.42,2.65-2.14,3.96-.07,.13-.23,.23-.26,.36-.09,.46-.14,.93-.21,1.39,.38-.16,.85-.22,1.12-.48,.88-.87,1.67-1.84,2.54-2.72,.43-.44,.94-.82,1.47-1.13,.89-.53,1.55-.33,2.1,.54,.03,.05,.06,.1,.09,.15,1.1,1.86,2.46,1.82,3.59-.06,.39-.65,.93-1.21,1.4-1.81,.11,.05,.22,.1,.32,.15,.08,.68,.15,1.37,.25,2.05,.17,1.2,.8,1.96,1.78,2.17,1.31,.28,2.52-.18,3.18-1.13,1.31-1.88,2.87-3.31,5.41-3.03,.29,.03,.65-.24,.92-.44,2.64-2.04,4.85-4.5,6.83-7.17,2.61-3.51,5.11-7.1,7.8-10.56,1.32-1.7,2.86-3.24,4.45-4.69,.82-.74,1.92-1.3,2.98-1.62,1.62-.5,2.61,.46,2.06,2.05-.79,2.28-1.66,4.57-2.83,6.67-3.81,6.83-8.32,13.2-13.32,19.21-.09,.11-.19,.22-.27,.32,2.52,2.62,4.94,5.28,7.53,7.77,1.44,1.38,3.08,2.6,4.78,3.63,3.32,2.01,7.03,2.06,10.76,1.7,1.03-.1,2.04-.29,3.06-.44v.53ZM45.22,3.77c-.52,2.06-.93,4.09-1.55,6.05-.63,1.99-1.38,3.96-2.25,5.87-2.95,6.51-6,12.97-8.94,19.48-1.52,3.36-2.89,6.79-4.31,10.2-.11,.27-.15,.79,0,.92,1.45,1.21,2.95,2.38,4.83,2.88,.28,.08,.66,.05,.92-.08,8.94-4.27,16.87-9.88,23.22-17.56,3.72-4.5,6.65-9.43,7.57-15.31,.67-4.29-.62-8.61-5.25-10.77-.48-.22-.96-.46-1.45-.66-4.2-1.68-8.54-1.65-12.8-1.02ZM125.65,41.59c-1.26-.33-2.42-.67-3.6-.9-.41-.08-.92,.03-1.3,.22-1.34,.67-2.62,1.49-3.98,2.13-4.82,2.23-9.93,3.41-15.17,4.03-1.04,.12-1.72,.43-2,1.45-.64,2.27-1.4,4.51-1.87,6.81-.26,1.27-.18,2.65-.02,3.95,.23,1.86,1.06,2.49,2.94,2.47,1.98-.02,3.86-.48,5.66-1.28,8.72-3.86,14.6-10.63,19.35-18.88Zm-45.43,.97c-2.12,.42-3.99,.72-5.83,1.16-4.55,1.07-8,3.48-9.44,8.16-1.4,4.54-.07,8.42,3.41,11.07,1.27,.97,2.57,.97,3.72-.12,.9-.86,1.7-1.9,2.31-2.99,1.87-3.35,3.06-6.97,4.09-10.65,.6-2.13,1.13-4.27,1.75-6.63Zm92.81,.35s.14-.23,.28-.41c4.68-5.77,9.01-11.79,12.61-18.29,1.01-1.83,1.79-3.79,2.57-5.73,.19-.47,.13-1.35-.18-1.61-.36-.3-1.22-.34-1.68-.12-.94,.46-1.92,1.03-2.58,1.81-2.29,2.7-4.56,5.43-6.64,8.29-2.78,3.83-5.37,7.79-8.9,11-.68,.62-1.37,1.23-1.94,1.74,2.12,1.09,4.21,2.15,6.46,3.31Zm-38.61-13.8c.07-.04,.15-.08,.21-.14,5.55-5.31,11.15-10.57,16.62-15.96,2.7-2.66,5.04-5.64,6.72-9.09,.22-.44,.4-.93,.47-1.42,.12-.82-.36-1.26-1.17-1.04-.5,.14-.98,.4-1.42,.69-2.9,1.84-5.36,4.18-7.56,6.78-5.29,6.25-9.37,13.33-13.87,20.16Zm37.05,15.31c-1.97-1.54-3.98-2.7-6.33-3.12-.38-.07-.87,.07-1.22,.28-1.05,.6-2.01,1.38-3.09,1.91-1.13,.55-1.46,1.44-1.55,2.56-.16,1.88,.84,3.22,2.73,3.31,1.06,.05,2.2-.11,3.18-.5,2.39-.94,4.33-2.6,6.27-4.43Zm-69.97,1.27c6.36-.73,12.57-1.99,18.15-5.32-6.64-.22-13.04,.36-18.15,5.32Zm-76.78,5.82c.08,0,.15,0,.23,0,.42-1.29,.86-2.57,1.24-3.86,.06-.19-.05-.54-.2-.67-1.1-.91-2.34-1.49-3.81-1.45-1.99,.05-3.39,.97-3.73,2.41-.59,2.55,1.99,4.92,4.73,4.34,.11-2.38,.17-2.52,1.37-2.82,.05,.69,.11,1.37,.16,2.05Zm64.49-11.42c.08,.1,.16,.2,.24,.3,.78-.15,1.56-.26,2.33-.45,1.98-.5,3.95-1.05,5.62-2.3,.46-.35,.86-.8,.61-1.44-.26-.67-.87-.78-1.48-.7-1.93,.25-3.8,.78-5.28,2.1-.79,.7-1.37,1.65-2.04,2.49Zm37.36,.05c1.26-2.09,2.5-4.13,3.74-6.18-.03-.02-.06-.04-.09-.06-2.25,1.76-4.5,3.51-6.82,5.32,1.11,.32,2.09,.6,3.17,.91ZM25.72,52.28c1.9-.62,3.67-1.2,5.5-1.8-1.42-.84-2.7-1.59-3.98-2.34-.47,1.29-.96,2.61-1.52,4.14Zm54.93-13.34c-.08-.03-.16-.05-.24-.08-.63,.87-1.26,1.73-1.99,2.74,.78-.12,1.37-.21,2.01-.31,.08-.83,.15-1.59,.22-2.35Zm-23.67-.97c.07,.05,.13,.1,.2,.16,1.14-1.39,2.28-2.77,3.42-4.16-.1-.08-.21-.17-.31-.25l-3.3,4.25Zm103.59,4.32c.06,.1,.12,.21,.18,.31l2.1-1.24c-.06-.11-.13-.21-.19-.32-.7,.42-1.4,.83-2.1,1.25Z"/>
  </g>
</svg>