<?xml version="1.0" encoding="UTF-8"?>
<svg id="ae7ad495-543d-4c4b-9483-8059c5566fe6" xmlns="http://www.w3.org/2000/svg" width="782.81" height="782.81" xmlns:xlink="http://www.w3.org/1999/xlink" viewBox="0 0 782.81 782.81">
  <defs>
    <style>
      .cls-1 {
        fill: none;
      }

      .cls-2 {
        fill: url(#linear-gradient);
        opacity: .8;
      }

      .cls-3 {
        clip-path: url(#clippath);
      }

      .cls-4 {
        fill: #f7ba8f;
      }

      .cls-5 {
        fill: #f3a87f;
      }

      .cls-6 {
        fill: #f6ac7c;
      }

      .cls-7 {
        fill: #e97f58;
      }

      .cls-8 {
        fill: #e4907a;
      }

      .cls-9 {
        fill: #e5ecf1;
      }

      .cls-10 {
        fill: #fdf7f8;
      }

      .cls-11 {
        fill: #a5b6bf;
      }

      .cls-12 {
        fill: #c07c16;
      }

      .cls-13 {
        fill: #d88e5c;
      }

      .cls-14 {
        fill: #d7e3eb;
      }

      .cls-15 {
        fill: #cd754d;
      }

      .cls-16 {
        fill: #cb6b3f;
      }

      .cls-17 {
        fill: #e28b60;
      }

      .cls-18 {
        fill: #e28261;
      }

      .cls-19 {
        fill: #e2935f;
      }

      .cls-20 {
        fill: #1d1837;
      }
    </style>
    <clipPath id="clippath">
      <path class="cls-1" d="M0,391.4c0,216.16,161.22,391.4,377.39,391.4s405.42-175.24,405.42-391.4S607.57,0,391.41,0,0,175.24,0,391.4"/>
    </clipPath>
    <linearGradient id="linear-gradient" x1="391.4" y1="-144.1" x2="391.4" y2="-142.78" gradientUnits="userSpaceOnUse">
      <stop offset="0" stop-color="#f4ebc7"/>
      <stop offset="1" stop-color="#e1d6c4"/>
    </linearGradient>
  </defs>
  <g class="cls-3">
    <path class="cls-2" d="M0,391.4c0,216.17,161.22,391.4,377.38,391.4s405.42-175.23,405.42-391.4S607.57,0,391.4,0,0,175.24,0,391.4Z"/>
    <path class="cls-12" d="M254.16,290.63s-43.56-142.24,2.83-180.03l55.47-24.76s-8.16-23.45,27.08-29.97c35.23-6.52,132.12-1.42,173.35,35.68,23.23,20.91,36.02,63.34,29.97,133.69-2.68,31.17-13.12,100.1-13.12,100.1l-275.59-34.72Z"/>
    <path class="cls-14" d="M654.74,625.46c-71.19-11.37-165.41-42.12-179.55-70.36-12.97-25.91-13.41-58-12.21-109.46l-71.58,22.73-71.58-22.73c1.2,51.46,.76,83.55-12.21,109.46-14.14,28.23-108.37,58.99-179.55,70.36-89.78,14.34-78.06,157.34-78.06,157.34H732.79s11.73-143-78.05-157.34Z"/>
    <path class="cls-17" d="M502.72,578.42c-13.77-7.66-23.66-15.59-27.53-23.32-10.6-21.17-12.82-46.47-12.63-83.09-8.63-6.95-18.32-12.73-28.8-17.09l-42.36,13.45-47.28-15.01c-8.5,3.18-16.52,7.3-23.93,12.21,.48,40.13-1.37,67.15-12.57,89.53-4.59,9.16-17.6,18.58-35.53,27.52,11.59,50.58,58.61,88.44,114.87,88.44s105.88-39.97,115.76-92.65Z"/>
    <path class="cls-15" d="M471.66,547.1c-9.5-24.54-9.76-55.16-8.67-101.45l-71.58,22.73-71.58-22.73c.71,30.3,.84,53.89-1.81,73.45,33.85,27.6,109.5,78.82,153.64,27.99Z"/>
    <path class="cls-17" d="M265.04,295.01s-7.26-22.6-21.35-15.03c-14.09,7.57-6.6,95.3,13.9,105.44,20.5,10.15,25.51-17.25,25.51-17.25l-18.05-73.16Z"/>
    <path class="cls-17" d="M520.32,295.01s7.26-22.6,21.35-15.03c14.09,7.57,6.6,95.3-13.9,105.44-20.49,10.15-25.51-17.25-25.51-17.25l18.06-73.16Z"/>
    <path class="cls-5" d="M525.79,290.37c-1.6-111.71-51.43-162.58-134.39-162.86-82.95,.29-132.78,51.16-134.38,162.86-.56,39.41,7.43,90.09,15.81,120.18,11.52,41.37,66.94,74.9,96.5,89.82,7.27,3.67,13.27,3.6,22.07,3.6s14.81,.07,22.07-3.6c29.56-14.92,84.99-48.45,96.51-89.82,8.38-30.09,16.37-80.77,15.81-120.18Z"/>
    <path class="cls-7" d="M393.04,415.36h-47.38c9.66,37.28,45.82,33.55,45.82,33.55,0,0,34.91,3.73,48.93-33.55h-47.37Z"/>
    <path class="cls-9" d="M393.04,412.69l-44.4,3.59s9.59,16.35,44.4,16.35,44.39-16.35,44.39-16.35l-44.39-3.59Z"/>
    <path class="cls-16" d="M394.7,384.66s10.23-15.69,20.32-5.65c0,0,.14,4.49-9.01,3.69,0,0-3.99-1.76-11.31,1.96Z"/>
    <path class="cls-16" d="M389.99,384.53s-11.07-16.3-20.65-6.83c0,0,.1,4.49,9.22,4.21,0,0,3.9-1.54,11.43,2.61Z"/>
    <path class="cls-6" d="M502.72,578.42c-13.77-7.66-23.66-15.59-27.53-23.32-10.6-21.17-12.82-46.47-12.63-83.09-8.63-6.95-18.32-12.73-28.8-17.09l-42.36,13.45-47.28-15.01c-8.5,3.18-16.52,7.3-23.93,12.21,.48,40.13-1.37,67.15-12.57,89.53-4.59,9.16-17.6,18.58-35.53,27.52,11.59,50.58,58.61,88.44,114.87,88.44s105.88-39.97,115.76-92.65Z"/>
    <path class="cls-19" d="M471.66,547.1c-9.5-24.54-9.76-55.16-8.67-101.45l-71.58,22.73-71.58-22.73c.71,30.3,.84,53.89-1.81,73.45,33.85,27.6,109.5,78.82,153.64,27.99Z"/>
    <path class="cls-6" d="M265.04,295.01s-7.26-22.6-21.35-15.03c-14.09,7.57-6.6,95.3,13.9,105.44,20.5,10.15,25.51-17.25,25.51-17.25l-18.05-73.16Z"/>
    <path class="cls-6" d="M520.32,295.01s7.26-22.6,21.35-15.03c14.09,7.57,6.6,95.3-13.9,105.44-20.49,10.15-25.51-17.25-25.51-17.25l18.06-73.16Z"/>
    <path class="cls-4" d="M525.79,290.37c-1.6-111.71-51.43-162.58-134.39-162.86-82.95,.29-132.78,51.16-134.38,162.86-.56,39.41,7.43,90.09,15.81,120.18,11.52,41.37,66.94,74.9,96.5,89.82,7.27,3.67,13.27,3.6,22.07,3.6s14.81,.07,22.07-3.6c29.56-14.92,84.99-48.45,96.51-89.82,8.38-30.09,16.37-80.77,15.81-120.18Z"/>
    <path class="cls-8" d="M393.04,415.36h-47.38c9.66,37.28,45.82,33.55,45.82,33.55,0,0,34.91,3.73,48.93-33.55h-47.37Z"/>
    <path class="cls-9" d="M393.04,412.69l-44.4,3.59s9.59,16.35,44.4,16.35,44.39-16.35,44.39-16.35l-44.39-3.59Z"/>
    <path class="cls-13" d="M394.7,384.66s10.23-15.69,20.32-5.65c0,0,.14,4.49-9.01,3.69,0,0-3.99-1.76-11.31,1.96Z"/>
    <path class="cls-13" d="M389.99,384.53s-11.07-16.3-20.65-6.83c0,0,.1,4.49,9.22,4.21,0,0,3.9-1.54,11.43,2.61Z"/>
    <path class="cls-18" d="M408.68,406.34c-5.3-1.96-13.77,1.2-15.64,2.51-1.87-1.3-10.35-4.46-15.65-2.51-5.3,1.96-31.73,9.03-31.73,9.03,14.65,5.21,47.38,4.24,47.38,4.24,0,0,32.73,.98,47.37-4.24,0,0-26.43-7.07-31.73-9.03Z"/>
    <path class="cls-10" d="M300.75,305.58h0c3.85-6.25,14.4-10.75,26.85-10.75s23.01,4.5,26.85,10.75c-3.85,6.25-14.4,10.75-26.85,10.75s-23.01-4.5-26.85-10.75Z"/>
    <path class="cls-20" d="M300.75,304.73c6.09-5.65,14.4-9.9,26.85-9.9,9.35,0,18.32,3.45,26.85,9.9-12.29-19.34-31.84-19.67-49.1-11.52,0,0-2.37,.54-11.88,9.47l7.27,2.04Z"/>
    <path class="cls-17" d="M297.96,293.71s.18-.15,.56-.44c2.61-1.99,14.15-10,28.99-9.99,8.12,0,17.25,2.37,26.56,9.47,.29,.22,.69,.16,.91-.12,.22-.29,.16-.69-.12-.91-9.52-7.26-18.97-9.74-27.35-9.73-17.51,.01-30.33,10.69-30.38,10.73-.28,.23-.31,.64-.08,.92,.23,.28,.64,.31,.92,.08h0Z"/>
    <path class="cls-20" d="M315.34,296.4c-1.79,2.3-2.87,5.18-2.87,8.32,0,4.28,1.99,8.09,5.09,10.57,3.13,.67,6.51,1.05,10.05,1.05,2.03,0,4.01-.13,5.92-.36,3.63-2.43,6.01-6.56,6.01-11.25,0-3.55-1.38-6.78-3.62-9.19-2.63-.45-5.42-.7-8.31-.7-4.4,0-8.56,.57-12.27,1.57Z"/>
    <path class="cls-12" d="M418.77,263.39s1.21,12.74,12.38,9.67c15.64-4.29,46.64-8.47,68.08,0,2.66,1.05-21.79-41.11-80.46-9.67Z"/>
    <path class="cls-12" d="M363.91,263.39s-1.21,12.74-12.38,9.67c-15.63-4.29-46.64-8.47-68.08,0-2.66,1.05,21.79-41.11,80.46-9.67Z"/>
    <path class="cls-10" d="M482.06,305.58h0c-3.85-6.25-14.4-10.75-26.86-10.75s-23.01,4.5-26.85,10.75h0c3.84,6.25,14.4,10.75,26.85,10.75s23.01-4.5,26.86-10.75Z"/>
    <path class="cls-20" d="M482.06,304.73c-6.09-5.65-14.4-9.9-26.86-9.9-9.35,0-18.33,3.45-26.85,9.9,12.29-19.34,31.83-19.67,49.1-11.52,0,0,2.37,.54,11.88,9.47l-7.27,2.04Z"/>
    <path class="cls-17" d="M485.68,292.71c-.06-.04-12.87-10.72-30.38-10.73-8.38,0-17.83,2.47-27.35,9.73-.29,.22-.34,.63-.12,.91,.22,.29,.63,.34,.91,.12,9.31-7.09,18.43-9.46,26.56-9.47,8.48,0,15.88,2.61,21.16,5.22,2.64,1.31,4.74,2.61,6.18,3.59,.72,.49,1.28,.9,1.65,1.18,.37,.28,.56,.44,.56,.44,.28,.23,.69,.19,.92-.08,.23-.28,.19-.69-.08-.92h0Z"/>
    <path class="cls-20" d="M467.48,296.4c1.79,2.3,2.87,5.18,2.87,8.32,0,4.28-1.99,8.09-5.09,10.57-3.13,.67-6.51,1.05-10.05,1.05-2.03,0-4.01-.13-5.92-.36-3.62-2.43-6.01-6.56-6.01-11.25,0-3.55,1.38-6.78,3.62-9.19,2.63-.45,5.42-.7,8.32-.7,4.4,0,8.56,.57,12.27,1.57Z"/>
    <path class="cls-12" d="M394.7,118.64c-97.16,0-138.93,48.08-140.54,159.79-.07,4.61,2.85,21.33,3.01,26.2,13.95-8.15,15.04-34.94,17.17-65.43,3.36-48.04,49.25-73.68,71.32-67.85,19.57,5.17,38.81,11.56,82.69-1.47,52.86-15.7,65.99,38.64,71.07,71.21,4.83,30.95,24.29,60.52,26.22,63.39,.15-4.82,4.16-21.48,4.1-26.05-1.61-111.71-40.42-159.79-135.05-159.79Z"/>
    <path class="cls-11" d="M522.5,588.14c-1.23-.54-2.44-1.08-3.64-1.63-13.7,59.93-67.43,104.77-131.45,104.77s-115.84-43.27-130.68-101.6c-1.2,.51-2.41,1.02-3.65,1.53,15.47,59.73,69.83,103.98,134.33,103.98s120.72-45.77,135.09-107.06Z"/>
    <path class="cls-20" d="M482.75,276.12c-1.65-.31-3.33-.59-5.05-.82h0c-5.09-.69-10.47-1.03-16.05-1.03-20.56,0-36.93,4.75-45.96,14.91-23.28-1.89-41.72,0-41.72,0-9.03-10.16-25.41-14.91-45.96-14.91-5.57,0-10.95,.34-16.04,1.03h0c-1.71,.23-3.4,.51-5.05,.82-35.22,6.1-45.7,17.83-45.7,17.83v11.88c5.96,.55,9.61,12.62,9.62,12.65,2.62,22.16,16.41,41.67,44.85,41.67,31.84,0,66-24,66-49.25,0-1.11-.06-2.18-.14-3.24l.14,.35c11.68-22.71,26.45-2.27,26.61-2.07-.2,1.59-.31,3.24-.31,4.96,0,25.25,34.16,49.25,66,49.25,28.44,0,42.23-19.51,44.85-41.67,0-.03,3.66-12.1,9.62-12.65v-11.88s-10.47-11.73-45.7-17.83Z"/>
  </g>
</svg>